<svg width="24" height="24" viewBox="0 0 24 24" fill="none" xmlns="http://www.w3.org/2000/svg">
<path d="M12 15C13.6569 15 15 13.6569 15 12C15 10.3431 13.6569 9 12 9C10.3431 9 9 10.3431 9 12C9 13.6569 10.3431 15 12 15Z" stroke="currentColor" stroke-width="2" stroke-linecap="round" stroke-linejoin="round"/>
<path d="M19.4 15C19.2669 15.3016 19.2272 15.6472 19.286 15.9762C19.3448 16.3052 19.4995 16.6056 19.73 16.84L19.79 16.9C19.976 17.0857 20.1235 17.3053 20.2241 17.5466C20.3248 17.7879 20.3766 18.0454 20.3766 18.305C20.3766 18.5646 20.3248 18.8221 20.2241 19.0634C20.1235 19.3047 19.976 19.5243 19.79 19.71L19.73 19.77C19.5243 19.976 19.3047 20.1235 19.0634 20.2241C18.8221 20.3248 18.5646 20.3766 18.305 20.3766C18.0454 20.3766 17.7879 20.3248 17.5466 20.2241C17.3053 20.1235 17.0857 19.976 16.9 19.79L16.84 19.73C16.6056 19.4995 16.3052 19.3448 15.9762 19.286C15.6472 19.2272 15.3016 19.2669 15 19.4C14.6984 19.2669 14.3528 19.2272 14.0238 19.286C13.6948 19.3448 13.3944 19.4995 13.16 19.73L13.1 19.79C12.9143 19.976 12.6947 20.1235 12.4534 20.2241C12.2121 20.3248 11.9546 20.3766 11.695 20.3766C11.4354 20.3766 11.1779 20.3248 10.9366 20.2241C10.6953 20.1235 10.4757 19.976 10.29 19.79L10.23 19.73C10.024 19.5243 9.8765 19.3047 9.7759 19.0634C9.6752 18.8221 9.6234 18.5646 9.6234 18.305C9.6234 18.0454 9.6752 17.7879 9.7759 17.5466C9.8765 17.3053 10.024 17.0857 10.23 16.9L10.29 16.84C10.5005 16.6056 10.6552 16.3052 10.714 15.9762C10.7728 15.6472 10.7331 15.3016 10.6 15C10.7331 14.6984 10.7728 14.3528 10.714 14.0238C10.6552 13.6948 10.5005 13.3944 10.29 13.16L10.23 13.1C10.044 12.9143 9.8965 12.6947 9.7959 12.4534C9.6952 12.2121 9.6434 11.9546 9.6434 11.695C9.6434 11.4354 9.6952 11.1779 9.7959 10.9366C9.8965 10.6953 10.044 10.4757 10.23 10.29L10.29 10.23C10.4957 10.024 10.7153 9.8765 10.9566 9.7759C11.1979 9.6752 11.4554 9.6234 11.715 9.6234C11.9746 9.6234 12.2321 9.6752 12.4734 9.7759C12.7147 9.8765 12.9343 10.024 13.12 10.23L13.18 10.29C13.4144 10.5005 13.7148 10.6552 14.0438 10.714C14.3728 10.7728 14.7184 10.7331 15.02 10.6C15.3216 10.7331 15.6672 10.7728 15.9962 10.714C16.3252 10.6552 16.6256 10.5005 16.86 10.29L16.92 10.23C17.1057 10.044 17.3253 9.8965 17.5666 9.7959C17.8079 9.6952 18.0654 9.6434 18.325 9.6434C18.5846 9.6434 18.8421 9.6952 19.0834 9.7959C19.3247 9.8965 19.5443 10.044 19.73 10.23L19.79 10.29C19.996 10.4957 20.1435 10.7153 20.2441 10.9566C20.3448 11.1979 20.3966 11.4554 20.3966 11.715C20.3966 11.9746 20.3448 12.2321 20.2441 12.4734C20.1435 12.7147 19.996 12.9343 19.79 13.12L19.73 13.18C19.4995 13.4144 19.3448 13.7148 19.286 14.0438C19.2272 14.3728 19.2669 14.7184 19.4 15.02Z" stroke="currentColor" stroke-width="2" stroke-linecap="round" stroke-linejoin="round"/>
</svg>

